<?xml version="1.0" standalone="no"?>
<!DOCTYPE svg PUBLIC "-//W3C//DTD SVG 20010904//EN"
 "http://www.w3.org/TR/2001/REC-SVG-20010904/DTD/svg10.dtd">
<svg version="1.0" xmlns="http://www.w3.org/2000/svg"
 width="1080.000000pt" height="1080.000000pt" viewBox="0 0 1080.000000 1080.000000"
 preserveAspectRatio="xMidYMid meet">
<metadata>
Created by potrace 1.11, written by Peter Selinger 2001-2013
</metadata>
<g transform="translate(0.000000,1080.000000) scale(0.100000,-0.100000)"
fill="#000000" stroke="none">
<path d="M0 5400 l0 -5400 5400 0 5400 0 0 5400 0 5400 -5400 0 -5400 0 0
-5400z m5714 1744 c33 -8 94 -33 135 -55 367 -197 547 -614 399 -926 -16 -35
-34 -63 -41 -63 -7 0 -44 16 -83 37 l-72 36 -5 57 c-5 59 -57 184 -94 229
l-20 25 -44 -26 c-62 -36 -157 -139 -222 -239 -30 -46 -108 -183 -172 -304
-65 -121 -133 -246 -152 -279 -18 -32 -35 -64 -36 -70 -1 -7 30 -13 90 -16
117 -7 140 -24 54 -41 -55 -10 -61 -14 -48 -27 16 -15 70 -10 360 34 102 16
110 16 125 -1 16 -16 16 -18 -2 -28 -35 -22 -71 -55 -65 -61 3 -3 75 8 160 24
184 36 183 36 221 9 29 -21 34 -21 102 -9 76 13 102 23 127 49 16 17 245 58
256 47 12 -11 -21 -68 -46 -80 -14 -8 -80 -28 -146 -45 -161 -42 -154 -39
-131 -57 25 -18 82 -18 166 0 36 8 66 13 68 11 1 -1 -1 -12 -6 -24 -6 -17 -36
-32 -137 -67 -354 -123 -586 -194 -710 -218 -44 -8 -195 -24 -335 -36 -140
-12 -268 -27 -285 -34 -64 -28 -156 -122 -214 -218 -18 -30 -20 -41 -11 -58
10 -18 1 -42 -59 -163 -38 -78 -97 -200 -130 -270 -55 -116 -62 -127 -80 -118
-26 14 -31 -8 -18 -86 9 -52 8 -68 -8 -109 -37 -98 -49 -111 -133 -138 -108
-36 -136 -35 -178 11 -26 29 -37 34 -46 25 -18 -18 -24 -15 -48 23 -13 21 -20
47 -19 67 2 21 -8 55 -26 92 -16 32 -29 73 -29 90 1 17 21 76 46 131 111 242
171 399 176 461 5 71 -18 127 -68 166 -29 22 -33 33 -48 128 -13 82 -14 104
-4 108 29 9 76 59 94 99 10 23 26 44 36 47 80 23 199 58 210 61 9 4 10 10 3
24 -9 16 -5 22 24 40 40 24 48 40 74 160 19 86 405 1070 474 1206 45 91 102
169 149 208 64 52 298 177 332 177 15 0 56 -7 90 -16z"/>
<path d="M6030 5309 c-47 -17 -93 -33 -102 -36 -10 -3 -18 -12 -18 -19 0 -17
-7 -18 92 6 46 11 106 20 133 21 28 0 72 8 100 18 47 17 49 18 28 29 -41 22
-142 14 -233 -19z"/>
<path d="M5805 5251 c-48 -8 -65 -17 -65 -37 0 -17 11 -17 75 -1 32 9 51 19
53 30 4 18 0 18 -63 8z"/>
<path d="M4867 4880 c-55 -35 -77 -71 -57 -95 22 -27 37 -17 78 55 22 39 37
70 33 70 -4 0 -28 -13 -54 -30z"/>
<path d="M4385 4810 c9 -58 21 -70 36 -36 11 24 10 29 -15 54 l-28 27 7 -45z"/>
<path d="M4743 4812 c-49 -39 -78 -123 -55 -160 6 -8 21 20 45 80 20 50 36 93
34 94 -1 2 -12 -5 -24 -14z"/>
<path d="M4612 4314 c-12 -8 -29 -29 -38 -46 -14 -27 -14 -32 -1 -46 14 -13
18 -9 44 39 15 30 29 57 31 62 6 12 -12 8 -36 -9z"/>
</g>
</svg>
